<svg xmlns="http://www.w3.org/2000/svg" width="1280" height="760" viewBox="0 0 1280 760">
  <defs>
    <linearGradient id="bg" x1="0" y1="0" x2="0" y2="1">
      <stop offset="0" stop-color="#0d1319"/>
      <stop offset="1" stop-color="#0a0e12"/>
    </linearGradient>
  </defs>

  <rect width="1280" height="64" fill="#10161c"/>
  <circle cx="28" cy="32" r="6" fill="#ff5c72"/>
  <circle cx="50" cy="32" r="6" fill="#f5a623"/>
  <circle cx="72" cy="32" r="6" fill="#38c984"/>
  <rect x="120" y="18" width="900" height="28" rx="4" fill="#182027"/>
  <text x="135" y="37" font-family="'Courier New', Consolas, monospace" font-size="13" fill="#7e919e">app.mediqueue.local/doctor/queue</text>

  <rect y="64" width="1280" height="696" fill="url(#bg)"/>

  <!-- sidebar -->
  <rect x="0" y="64" width="238" height="696" fill="#0d1319" stroke="#1e2831"/>
  <rect x="16" y="84" width="30" height="30" fill="#f5a623" rx="3"/>
  <rect x="27" y="95" width="8" height="8" fill="#1a1203"/>
  <text x="58" y="99" font-family="'Segoe UI', sans-serif" font-size="16" font-weight="700" fill="#e8eef2">MediQueue</text>
  <text x="58" y="115" font-family="'Courier New', Consolas, monospace" font-size="10" letter-spacing="1" fill="#51626d">CLINIC OPERATIONS</text>

  <text x="16" y="152" font-family="'Courier New', Consolas, monospace" font-size="10" letter-spacing="2" fill="#51626d">DOCTOR</text>

  <g font-family="'Segoe UI', sans-serif" font-size="14">
    <rect x="18" y="164" width="5" height="5" fill="#51626d"/>
    <text x="32" y="175" fill="#abbcca">Dashboard</text>
    <rect x="8" y="192" width="222" height="36" rx="4" fill="rgba(245,166,35,0.12)"/>
    <rect x="8" y="192" width="3" height="36" fill="#f5a623"/>
    <rect x="18" y="204" width="5" height="5" fill="#f5a623"/>
    <text x="32" y="215" fill="#e8eef2" font-weight="600">Today's Queue</text>
    <rect x="18" y="244" width="5" height="5" fill="#51626d"/>
    <text x="32" y="255" fill="#abbcca">Appointments</text>
    <rect x="18" y="284" width="5" height="5" fill="#51626d"/>
    <text x="32" y="295" fill="#abbcca">Patient History</text>
    <rect x="18" y="324" width="5" height="5" fill="#51626d"/>
    <text x="32" y="335" fill="#abbcca">Profile</text>
  </g>

  <rect x="12" y="686" width="214" height="54" rx="4" fill="#12181e" stroke="#1e2831"/>
  <circle cx="40" cy="713" r="16" fill="#182027"/>
  <text x="34" y="718" font-family="'Segoe UI', sans-serif" font-size="12" fill="#f5a623">AS</text>
  <text x="64" y="712" font-family="'Segoe UI', sans-serif" font-size="13" fill="#e8eef2">Dr. Ananya Sharma</text>
  <text x="64" y="728" font-family="'Segoe UI', sans-serif" font-size="11" fill="#7e919e">Doctor</text>

  <!-- main -->
  <text x="266" y="116" font-family="'Segoe UI', sans-serif" font-size="12" fill="#51626d">Thursday, 24 September 2026</text>
  <text x="266" y="152" font-family="'Segoe UI', sans-serif" font-size="26" font-weight="700" fill="#e8eef2">My queue</text>
  <text x="266" y="176" font-family="'Segoe UI', sans-serif" font-size="14" fill="#7e919e">Active patients for today. Live queue position and wait time.</text>

  <!-- IN CONSULT section -->
  <text x="266" y="216" font-family="'Segoe UI', sans-serif" font-size="15" font-weight="700" fill="#3ddc97">In consultation</text>
  <rect x="266" y="228" width="932" height="76" rx="4" fill="#12181e" stroke="rgba(61,220,151,0.5)"/>

  <rect x="278" y="244" width="92" height="26" rx="4" fill="rgba(61,220,151,0.18)" stroke="rgba(61,220,151,0.5)"/>
  <text x="294" y="262" font-family="'Courier New', Consolas, monospace" font-size="14" font-weight="700" fill="#3ddc97">#1</text>
  <text x="390" y="262" font-family="'Courier New', Consolas, monospace" font-size="14" fill="#e8eef2">10:00 AM</text>
  <text x="500" y="262" font-family="'Segoe UI', sans-serif" font-size="15" fill="#e8eef2">Aman Verma</text>
  <text x="500" y="280" font-family="'Segoe UI', sans-serif" font-size="12" fill="#51626d">Recurring stomach pain after meals · +91 98101 23403</text>
  <rect x="1030" y="246" width="152" height="34" rx="4" fill="#f5a623"/>
  <text x="1044" y="268" font-family="'Segoe UI', sans-serif" font-size="14" font-weight="700" fill="#1a1203">Complete</text>

  <!-- WAITING section -->
  <text x="266" y="334" font-family="'Segoe UI', sans-serif" font-size="15" font-weight="700" fill="#e8eef2">Waiting (2)</text>
  <rect x="266" y="346" width="932" height="150" rx="4" fill="#12181e" stroke="#1e2831"/>

  <g font-family="'Courier New', Consolas, monospace" font-size="12">
    <text x="284" y="376" fill="#51626d">POSITION</text>
    <text x="390" y="376" fill="#51626d">TIME</text>
    <text x="500" y="376" fill="#51626d">PATIENT</text>
    <text x="740" y="376" fill="#51626d">EST. WAIT</text>
    <text x="880" y="376" fill="#51626d">STATUS</text>
  </g>
  <rect x="266" y="384" width="932" height="1" fill="#1e2831"/>

  <g font-family="'Segoe UI', sans-serif" font-size="13">
    <rect x="278" y="398" width="92" height="26" rx="4" fill="rgba(245,166,35,0.15)" stroke="rgba(245,166,35,0.5)"/>
    <text x="294" y="416" font-family="'Courier New', Consolas, monospace" font-size="13" fill="#f5a623">#2</text>
    <text x="390" y="416" font-family="'Courier New', Consolas, monospace" fill="#e8eef2">10:30 AM</text>
    <text x="500" y="416" fill="#e8eef2">Vikram Joshi</text>
    <text x="500" y="432" font-size="11" fill="#51626d">Child with fever since yesterday</text>
    <text x="740" y="416" font-family="'Courier New', Consolas, monospace" fill="#e8eef2">Now</text>
    <rect x="874" y="404" width="112" height="22" rx="4" fill="rgba(61,220,151,0.15)" stroke="rgba(61,220,151,0.4)"/>
    <text x="892" y="418" font-size="11" fill="#3ddc97">WAITING</text>
    <rect x="1030" y="398" width="140" height="30" rx="4" fill="#f5a623"/>
    <text x="1044" y="418" font-size="13" font-weight="700" fill="#1a1203">Start</text>
  </g>
  <rect x="266" y="440" width="932" height="1" fill="#131a20"/>

  <g font-family="'Segoe UI', sans-serif" font-size="13">
    <rect x="278" y="454" width="92" height="26" rx="4" fill="rgba(245,166,35,0.15)" stroke="rgba(245,166,35,0.5)"/>
    <text x="294" y="472" font-family="'Courier New', Consolas, monospace" font-size="13" fill="#f5a623">#3</text>
    <text x="390" y="472" font-family="'Courier New', Consolas, monospace" fill="#e8eef2">11:00 AM</text>
    <text x="500" y="472" fill="#e8eef2">Sana Khan</text>
    <text x="500" y="488" font-size="11" fill="#51626d">Scheduled immunization - child</text>
    <text x="740" y="472" font-family="'Courier New', Consolas, monospace" fill="#e8eef2">~15 min</text>
    <rect x="874" y="460" width="112" height="22" rx="4" fill="rgba(61,220,151,0.15)" stroke="rgba(61,220,151,0.4)"/>
    <text x="892" y="474" font-size="11" fill="#3ddc97">WAITING</text>
    <rect x="1030" y="454" width="140" height="30" rx="4" fill="#f5a623"/>
    <text x="1044" y="474" font-size="13" font-weight="700" fill="#1a1203">Start</text>
  </g>

  <!-- NOT ARRIVED section -->
  <text x="266" y="528" font-family="'Segoe UI', sans-serif" font-size="15" font-weight="700" fill="#e8eef2">Not yet arrived (2)</text>
  <rect x="266" y="540" width="932" height="120" rx="4" fill="#12181e" stroke="#1e2831"/>

  <g font-family="'Courier New', Consolas, monospace" font-size="12">
    <text x="284" y="570" fill="#51626d">POSITION</text>
    <text x="390" y="570" fill="#51626d">TIME</text>
    <text x="500" y="570" fill="#51626d">PATIENT</text>
    <text x="740" y="570" fill="#51626d">EST. WAIT</text>
    <text x="880" y="570" fill="#51626d">STATUS</text>
  </g>
  <rect x="266" y="578" width="932" height="1" fill="#1e2831"/>

  <g font-family="'Segoe UI', sans-serif" font-size="13">
    <rect x="278" y="592" width="92" height="26" rx="4" fill="rgba(90,143,176,0.14)" stroke="rgba(111,169,201,0.35)"/>
    <text x="294" y="610" font-family="'Courier New', Consolas, monospace" font-size="13" fill="#6fa9c9">#4</text>
    <text x="390" y="610" font-family="'Courier New', Consolas, monospace" fill="#e8eef2">11:15 AM</text>
    <text x="500" y="610" fill="#e8eef2">Arjun Nair</text>
    <text x="500" y="626" font-size="11" fill="#51626d">Annual health check-up</text>
    <text x="740" y="610" font-family="'Courier New', Consolas, monospace" fill="#e8eef2">~30 min</text>
    <rect x="874" y="598" width="120" height="22" rx="4" fill="rgba(90,143,176,0.14)" stroke="rgba(111,169,201,0.35)"/>
    <text x="892" y="612" font-size="11" fill="#6fa9c9">SCHEDULED</text>
  </g>
  <rect x="266" y="634" width="932" height="1" fill="#131a20"/>

  <g font-family="'Segoe UI', sans-serif" font-size="13">
    <rect x="278" y="648" width="92" height="26" rx="4" fill="rgba(90,143,176,0.14)" stroke="rgba(111,169,201,0.35)"/>
    <text x="294" y="666" font-family="'Courier New', Consolas, monospace" font-size="13" fill="#6fa9c9">#5</text>
    <text x="390" y="666" font-family="'Courier New', Consolas, monospace" fill="#e8eef2">11:45 AM</text>
    <text x="500" y="666" fill="#e8eef2">Meera Pillai</text>
    <text x="500" y="682" font-size="11" fill="#51626d">Thyroid function follow-up</text>
    <text x="740" y="666" font-family="'Courier New', Consolas, monospace" fill="#e8eef2">~45 min</text>
    <rect x="874" y="654" width="120" height="22" rx="4" fill="rgba(90,143,176,0.14)" stroke="rgba(111,169,201,0.35)"/>
    <text x="892" y="668" font-size="11" fill="#6fa9c9">SCHEDULED</text>
  </g>
</svg>